P2
10 10 255
4 255 248 0 0 0 48 23 38 59 0 98 218 43 0 0 23 0 43 64 0 73 193 73 0 0 0 0 73 
89 0 43 218 98 0 0 0 0 98 84 0 68 98 18 0 0 0 23 43 29 4 0 0 0 23 43 18 23 0 0 
84 0 0 0 148 168 23 0 0 0 89 0 0 0 168 168 0 0 0 0 64 0 0 0 168 148 0 0 0 0 0 
0 0 48 143 123 0 23 0 0 
